<svg xmlns="http://www.w3.org/2000/svg" width="66" height="16" viewBox="0 0 66 16" fill="none">
    <g clip-path="url(#clip0_5_2343)">
        <path d="M34.4292 4.30169H32.2978L30.7895 6.95236H30.0131L29.9883 1.21582H27.9706V11.5762H29.9883L30.0131 8.73267H30.7845L32.7874 11.5762H35.0227L32.4115 7.8079L34.4292 4.30169Z" fill="black"/>
        <path d="M49.7002 7.71389C49.2903 7.44863 48.8459 7.24063 48.3797 7.09572L47.9346 6.9276L47.816 6.88309C47.5391 6.77922 47.2473 6.67045 47.2374 6.38856C47.2349 6.30506 47.2533 6.22227 47.2915 6.1479C47.3294 6.07352 47.3858 6.01 47.455 5.96325C47.6011 5.86257 47.7723 5.80436 47.9495 5.79513C48.3358 5.76845 48.7189 5.88264 49.0276 6.11657L49.0819 6.15118L50.16 4.90991L50.1057 4.86542C49.9714 4.74575 49.8258 4.63973 49.6705 4.54892C49.3923 4.38982 49.0901 4.27787 48.7755 4.21758C48.3222 4.12116 47.8537 4.12116 47.4006 4.21758C46.9625 4.27556 46.5469 4.44592 46.194 4.71211C45.9682 4.88864 45.7797 5.10793 45.6387 5.35739C45.4981 5.60685 45.4077 5.88162 45.373 6.16602C45.3112 6.67923 45.4415 7.19716 45.739 7.61993C46.134 8.05744 46.6506 8.36734 47.2225 8.51008L47.3116 8.53976L47.5143 8.60898C48.2462 8.85626 48.4539 8.95516 48.5725 9.10351C48.6278 9.17815 48.6589 9.26789 48.6616 9.36067C48.6616 9.71178 48.2314 9.85519 47.9396 9.94422C47.7356 9.98253 47.5259 9.97861 47.3235 9.93268C47.121 9.88675 46.9302 9.79979 46.7627 9.67717C46.4915 9.49589 46.2595 9.26216 46.0801 8.98978C45.9665 9.10848 44.8487 10.2113 44.8686 10.231L44.9033 10.2805C45.4417 10.9547 46.1963 11.4228 47.0396 11.6058C47.2322 11.6431 47.4272 11.6679 47.6232 11.68H47.8259C48.4921 11.694 49.1447 11.4909 49.6853 11.1014C50.0511 10.8428 50.3314 10.4813 50.4915 10.0629C50.5887 9.78202 50.623 9.48324 50.5922 9.1876C50.5614 8.89197 50.4664 8.60668 50.3133 8.35183C50.157 8.09771 49.9479 7.88013 49.7002 7.71389Z" fill="black"/>
        <path d="M56.2181 7.71398C55.8099 7.44874 55.3675 7.24074 54.9028 7.09582L54.4527 6.92769L54.3391 6.88318C54.0572 6.77931 53.7704 6.67051 53.7555 6.38865C53.7568 6.30531 53.7776 6.22345 53.8163 6.14959C53.855 6.07574 53.9103 6.01195 53.9781 5.96335C54.1242 5.86263 54.2954 5.80445 54.4726 5.79522C54.8589 5.76944 55.2415 5.88353 55.5507 6.11666L55.6 6.15127L56.6781 4.91L56.6287 4.86549C56.4935 4.74468 56.3461 4.63858 56.1886 4.54901C55.9122 4.39011 55.6115 4.27814 55.2983 4.21767C54.8435 4.12113 54.3736 4.12113 53.9188 4.21767C53.4811 4.27737 53.0657 4.44755 52.7119 4.7122C52.4849 4.88707 52.2946 5.10512 52.1519 5.35379C52.0095 5.60246 51.9174 5.87683 51.8812 6.16117C51.8165 6.67456 51.947 7.19353 52.2472 7.61508C52.6422 8.05259 53.1588 8.36247 53.7307 8.50524L53.8148 8.53491L54.0175 8.60414C54.7544 8.85139 54.9621 8.95032 55.0807 9.09867C55.1378 9.17204 55.1676 9.26295 55.1648 9.35582C55.1648 9.70694 54.7396 9.85035 54.4478 9.93937C54.2431 9.97778 54.0324 9.97391 53.8292 9.92801C53.626 9.88208 53.4342 9.79507 53.266 9.67232C52.997 9.48839 52.7655 9.25513 52.5834 8.98493C52.4747 9.10361 51.3569 10.2064 51.3718 10.2262L51.4113 10.2757C51.9499 10.9499 52.7045 11.4179 53.5478 11.601C53.7404 11.6386 53.9354 11.6633 54.1314 11.6751H54.3341C55.0003 11.6891 55.6529 11.486 56.1935 11.0966C56.5593 10.8379 56.8396 10.4765 56.9997 10.0581C57.0967 9.77718 57.1312 9.47839 57.1004 9.18276C57.0697 8.88712 56.9746 8.60183 56.8215 8.34699C56.6672 8.09592 56.4615 7.88022 56.2181 7.71398Z" fill="black"/>
        <path d="M41.0557 4.30174V5.01385H40.9669C40.4146 4.46086 39.6662 4.1481 38.8849 4.14349C38.4058 4.13401 37.9299 4.22557 37.4887 4.41215C37.0473 4.59877 36.6501 4.87624 36.3231 5.22651C35.6636 5.96504 35.31 6.9269 35.3341 7.91673C35.3085 8.92318 35.6613 9.90258 36.3231 10.6614C36.6424 11.0119 37.0332 11.2896 37.4694 11.4756C37.9053 11.6616 38.3763 11.7516 38.8502 11.7394C39.6327 11.7248 40.3853 11.436 40.9766 10.9235H41.0557V11.5614H43.1526V4.30174H41.0557ZM41.1597 7.9563C41.1808 8.54135 40.9853 9.11359 40.6106 9.56353C40.4312 9.76456 40.2096 9.92367 39.9618 10.0296C39.7141 10.1356 39.4459 10.1858 39.1767 10.1767C38.9154 10.1811 38.6564 10.1265 38.4192 10.0169C38.182 9.90727 37.9726 9.74555 37.8068 9.54373C37.4366 9.08448 37.2468 8.50599 37.2726 7.91673C37.2558 7.34521 37.4493 6.78736 37.8165 6.34908C37.9857 6.15034 38.1966 5.99139 38.4343 5.88368C38.672 5.77595 38.9306 5.72211 39.1913 5.72598C39.4591 5.71764 39.725 5.76878 39.9704 5.87567C40.2158 5.98256 40.4347 6.14255 40.6106 6.34414C40.9853 6.79604 41.1805 7.3698 41.1597 7.9563Z" fill="black"/>
        <path d="M63.8634 4.30167V5.0138H63.7743C63.2233 4.462 62.4772 4.14932 61.6973 4.14341C61.2177 4.13451 60.7413 4.22626 60.2992 4.4128C59.8573 4.59936 59.459 4.87654 59.1308 5.22643C58.4713 5.96496 58.1177 6.92685 58.1418 7.91668C58.1162 8.92313 58.469 9.90253 59.1308 10.6613C59.4501 11.0118 59.8409 11.2895 60.2768 11.4755C60.713 11.6615 61.184 11.7515 61.6579 11.7394C62.4405 11.7247 63.1928 11.4359 63.7843 10.9234H63.8634V11.5614H65.9603V4.30167H63.8634ZM63.9674 7.95623C63.9907 8.54162 63.7949 9.1147 63.4183 9.56345C63.2389 9.76448 63.0173 9.92362 62.7695 10.0296C62.5216 10.1355 62.2536 10.1858 61.9842 10.1767C61.7229 10.1811 61.4641 10.1264 61.2269 10.0168C60.9897 9.90722 60.7803 9.74547 60.6143 9.54368C60.2443 9.08443 60.0543 8.50594 60.0803 7.91668C60.0635 7.34513 60.257 6.78731 60.6242 6.34903C60.7934 6.15026 61.0043 5.99134 61.242 5.88361C61.4797 5.7759 61.7383 5.72203 61.999 5.72593C62.2668 5.71759 62.5328 5.7687 62.7781 5.87559C63.0235 5.98248 63.2421 6.14249 63.4183 6.34407C63.7949 6.79483 63.9905 7.36937 63.9674 7.95623Z" fill="black"/>
        <path d="M14.1972 0C9.84415 0 6.38145 3.51217 6.38145 7.81579C6.38145 12.1689 9.89362 15.6316 14.1972 15.6316C18.5009 15.6316 22.013 12.1194 22.013 7.81579C22.013 3.51217 18.5009 0 14.1972 0ZM14.1972 10.6849C12.6143 10.6849 11.2787 9.34927 11.2787 7.76631C11.2787 6.18338 12.6143 4.84777 14.1972 4.84777C15.7802 4.84777 17.1158 6.18338 17.1158 7.76631C17.0663 9.39872 15.7802 10.6849 14.1972 10.6849Z" fill="url(#paint0_linear_5_2343)"/>
        <path d="M6.33178 2.22607V13.6035H3.56162L0 2.22607H6.33178Z" fill="url(#paint1_linear_5_2343)"/>
    </g>
    <defs>
        <linearGradient id="paint0_linear_5_2343" x1="14.1972" y1="0" x2="14.1972" y2="15.6316" gradientUnits="userSpaceOnUse">
            <stop stop-color="#0160D1"/>
            <stop offset="1" stop-color="#00479C"/>
        </linearGradient>
        <linearGradient id="paint1_linear_5_2343" x1="3.16589" y1="2.22607" x2="3.16589" y2="13.6035" gradientUnits="userSpaceOnUse">
            <stop stop-color="#0160D1"/>
            <stop offset="1" stop-color="#00479C"/>
        </linearGradient>
        <clipPath id="clip0_5_2343">
            <rect width="66" height="15.6316" fill="white"/>
        </clipPath>
    </defs>
</svg>